<?xml version="1.0" encoding="utf-8"?>
<!-- Generator: Adobe Illustrator 22.1.0, SVG Export Plug-In . SVG Version: 6.00 Build 0)  -->
<svg version="1.1" id="Capa_1" xmlns="http://www.w3.org/2000/svg" xmlns:xlink="http://www.w3.org/1999/xlink" x="0px" y="0px"
	 viewBox="0 0 203.6 55.6" style="enable-background:new 0 0 203.6 55.6;" xml:space="preserve">
<style type="text/css">
	.st0{fill:url(#SVGID_1_);}
	.st1{fill:none;}
	.st2{font-family:'Rubik-Medium';}
	.st3{font-size:28.9401px;}
	.st4{fill:url(#SVGID_2_);}
	.st5{stroke:url(#SVGID_3_);stroke-miterlimit:10;}
</style>
<g>
	<linearGradient id="SVGID_1_" gradientUnits="userSpaceOnUse" x1="29.5726" y1="21.1143" x2="31.0018" y2="21.1143">
		<stop  offset="0" style="stop-color:#D75E5A"/>
		<stop  offset="0.2306" style="stop-color:#CA5564"/>
		<stop  offset="0.7148" style="stop-color:#AA4078"/>
		<stop  offset="1" style="stop-color:#953481"/>
	</linearGradient>
	<path class="st0" d="M31,21.1c0,0.4-0.3,0.7-0.7,0.7c-0.4,0-0.7-0.3-0.7-0.7c0-0.4,0.3-0.7,0.7-0.7C30.7,20.4,31,20.7,31,21.1z"/>
	<g>
		<rect x="48.6" y="18.8" class="st1" width="155" height="72.4"/>
		<text transform="matrix(1 0 0 1 48.6135 39.3142)" class="st2 st3">Alcreative</text>
	</g>
	<linearGradient id="SVGID_2_" gradientUnits="userSpaceOnUse" x1="10.5164" y1="22.6615" x2="48.613" y2="22.6615">
		<stop  offset="0" style="stop-color:#D75E5A"/>
		<stop  offset="0.2306" style="stop-color:#CA5564"/>
		<stop  offset="0.7148" style="stop-color:#AA4078"/>
		<stop  offset="1" style="stop-color:#953481"/>
	</linearGradient>
	<path class="st4" d="M27.7,29.9v-2.2l-1.7-5l3.3-8.7h2l3.1,8.7l-1.6,5v1.2c0,0.7,0.5,1.3,1.1,1.4c0.6,0.2,1.5,0.2,2.5-0.3
		c0.2-0.1,0.4-0.1,0.7-0.1c0.7,0.2,2.3,0.5,3.7-0.5c0.2-0.2,0.5-0.2,0.7-0.1c1.1,0.3,4.1,0.8,5.2-1.6c0.1-0.2,0.2-0.3,0.3-0.4
		c0.7-0.4,2.4-1.9,1.2-5.1c-0.1-0.2-0.1-0.5,0-0.7c0.5-1.1,1.6-4.5-2.8-6.3c-0.3-0.1-0.5-0.3-0.5-0.6c-0.3-1.3-1.5-5.1-5.4-4.6
		c-0.3,0-0.7-0.1-0.9-0.4c-0.8-1.2-3.3-4.2-7.4-2.3c-0.3,0.1-0.6,0.1-0.8,0c-1.2-0.8-5.1-2.7-8.1,0.8c-0.2,0.2-0.4,0.3-0.7,0.3
		c-1.3-0.1-5,0.1-5.8,4.3c-0.1,0.3-0.3,0.6-0.6,0.7c-1.4,0.5-5.4,2.4-3.9,7.7c0.1,0.2,0,0.4,0,0.6c-0.5,1.2-2.3,6.3,3.4,8.2
		c0.1,0,0.2,0.1,0.3,0.2c0.5,0.5,2.3,2.2,2.9,3.9c0.1,0.4,0.2,0.8,0.2,1.2c0,0.6-0.1,1.6,0.2,2.5c0.6,2,3.3,2.3,4.4,0.5
		c0.5-0.8,1.1-1.9,1.5-3.2c0.1-0.4,0.3-0.7,0.6-1C25.7,32.9,27.7,30.8,27.7,29.9z"/>
	<linearGradient id="SVGID_3_" gradientUnits="userSpaceOnUse" x1="29.7872" y1="17.5212" x2="30.7872" y2="17.5212">
		<stop  offset="0" style="stop-color:#D75E5A"/>
		<stop  offset="0.2306" style="stop-color:#CA5564"/>
		<stop  offset="0.7148" style="stop-color:#AA4078"/>
		<stop  offset="1" style="stop-color:#953481"/>
	</linearGradient>
	<path class="st5" d="M30.3,13.9v7.2V13.9z"/>
</g>
</svg>
